<svg width="21" height="21" viewBox="0 0 21 21" fill="none" xmlns="http://www.w3.org/2000/svg">
<path d="M10.5 0.8125C5.14844 0.8125 0.8125 5.1875 0.8125 10.5C0.8125 15.8516 5.14844 20.1875 10.5 20.1875C15.8125 20.1875 20.1875 15.8516 20.1875 10.5C20.1875 5.1875 15.8125 0.8125 10.5 0.8125ZM10.5 2.6875C14.7969 2.6875 18.3125 6.20312 18.3125 10.5C18.3125 14.8359 14.7969 18.3125 10.5 18.3125C6.16406 18.3125 2.6875 14.8359 2.6875 10.5C2.6875 6.20312 6.16406 2.6875 10.5 2.6875ZM15.9688 7.80469L15.0703 6.90625C14.9141 6.71094 14.6016 6.71094 14.4062 6.90625L8.89844 12.375L6.55469 10.0312C6.35938 9.83594 6.08594 9.83594 5.89062 10.0312L4.99219 10.8906C4.83594 11.0859 4.83594 11.3984 4.99219 11.5547L8.54688 15.1484C8.74219 15.3438 9.01562 15.3438 9.21094 15.1484L15.9688 8.46875C16.125 8.27344 16.125 7.96094 15.9688 7.80469Z" fill="#F17228"/>
</svg>
