<svg width="35" height="36" viewBox="0 0 35 36" fill="none" xmlns="http://www.w3.org/2000/svg">
<rect y="0.84668" width="35" height="35" rx="10" fill="#F2994A" fill-opacity="0.1"/>
<path d="M17.5 12.4717C15.6367 12.4717 14.125 14.0186 14.125 15.8467C14.125 17.71 15.6367 19.2217 17.5 19.2217C19.3281 19.2217 20.875 17.71 20.875 15.8467C20.875 14.0186 19.3281 12.4717 17.5 12.4717ZM17.5 18.0967C16.2344 18.0967 15.25 17.1123 15.25 15.8467C15.25 14.6162 16.2344 13.5967 17.5 13.5967C18.7305 13.5967 19.75 14.6162 19.75 15.8467C19.75 17.1123 18.7305 18.0967 17.5 18.0967ZM17.5 9.09668C13.7383 9.09668 10.75 12.1201 10.75 15.8467C10.75 18.5889 11.6641 19.3623 16.7969 26.7451C17.1133 27.2373 17.8516 27.2373 18.168 26.7451C23.3008 19.3623 24.25 18.5889 24.25 15.8467C24.25 12.1201 21.2266 9.09668 17.5 9.09668ZM17.5 25.7607C12.5781 18.6943 11.875 18.1318 11.875 15.8467C11.875 14.3701 12.4375 12.9639 13.4922 11.874C14.582 10.8193 15.9883 10.2217 17.5 10.2217C18.9766 10.2217 20.3828 10.8193 21.4727 11.874C22.5273 12.9639 23.125 14.3701 23.125 15.8467C23.125 18.1318 22.3867 18.6943 17.5 25.7607Z" fill="#F17228"/>
</svg>
